<mxfile host="Electron" modified="2023-12-03T11:02:08.988Z" agent="Mozilla/5.0 (Windows NT 10.0; Win64; x64) AppleWebKit/537.36 (KHTML, like Gecko) draw.io/22.0.3 Chrome/114.0.5735.289 Electron/25.8.4 Safari/537.36" etag="s63uuopNnL96KptuR_kp" version="22.0.3" type="device">
  <diagram id="C5RBs43oDa-KdzZeNtuy" name="Page-1">
    <mxGraphModel dx="3947" dy="1515" grid="1" gridSize="10" guides="1" tooltips="1" connect="1" arrows="1" fold="1" page="1" pageScale="1" pageWidth="827" pageHeight="1169" math="0" shadow="0">
      <root>
        <mxCell id="WIyWlLk6GJQsqaUBKTNV-0" />
        <mxCell id="WIyWlLk6GJQsqaUBKTNV-1" parent="WIyWlLk6GJQsqaUBKTNV-0" />
        <mxCell id="4SZAvXcc_9hS6sKojA4J-2" value="" style="edgeStyle=orthogonalEdgeStyle;rounded=0;orthogonalLoop=1;jettySize=auto;html=1;" edge="1" parent="WIyWlLk6GJQsqaUBKTNV-1" source="4SZAvXcc_9hS6sKojA4J-0" target="4SZAvXcc_9hS6sKojA4J-1">
          <mxGeometry relative="1" as="geometry" />
        </mxCell>
        <mxCell id="4SZAvXcc_9hS6sKojA4J-0" value="Start" style="ellipse;whiteSpace=wrap;html=1;" vertex="1" parent="WIyWlLk6GJQsqaUBKTNV-1">
          <mxGeometry x="354" width="120" height="80" as="geometry" />
        </mxCell>
        <mxCell id="4SZAvXcc_9hS6sKojA4J-4" value="" style="edgeStyle=orthogonalEdgeStyle;rounded=0;orthogonalLoop=1;jettySize=auto;html=1;" edge="1" parent="WIyWlLk6GJQsqaUBKTNV-1" source="4SZAvXcc_9hS6sKojA4J-1" target="4SZAvXcc_9hS6sKojA4J-3">
          <mxGeometry relative="1" as="geometry" />
        </mxCell>
        <mxCell id="4SZAvXcc_9hS6sKojA4J-1" value="Struct Student{&lt;br&gt;name[20];&lt;br&gt;age;&lt;br&gt;phoneNumber;&lt;br&gt;email[50];" style="whiteSpace=wrap;html=1;" vertex="1" parent="WIyWlLk6GJQsqaUBKTNV-1">
          <mxGeometry x="279" y="120" width="270" height="120" as="geometry" />
        </mxCell>
        <mxCell id="4SZAvXcc_9hS6sKojA4J-22" value="" style="edgeStyle=orthogonalEdgeStyle;rounded=0;orthogonalLoop=1;jettySize=auto;html=1;" edge="1" parent="WIyWlLk6GJQsqaUBKTNV-1" source="4SZAvXcc_9hS6sKojA4J-3" target="4SZAvXcc_9hS6sKojA4J-21">
          <mxGeometry relative="1" as="geometry" />
        </mxCell>
        <mxCell id="4SZAvXcc_9hS6sKojA4J-3" value="struct Struct Student sv" style="whiteSpace=wrap;html=1;" vertex="1" parent="WIyWlLk6GJQsqaUBKTNV-1">
          <mxGeometry x="354" y="280" width="120" height="60" as="geometry" />
        </mxCell>
        <mxCell id="4SZAvXcc_9hS6sKojA4J-9" value="" style="edgeStyle=orthogonalEdgeStyle;rounded=0;orthogonalLoop=1;jettySize=auto;html=1;" edge="1" parent="WIyWlLk6GJQsqaUBKTNV-1" source="4SZAvXcc_9hS6sKojA4J-7" target="4SZAvXcc_9hS6sKojA4J-8">
          <mxGeometry relative="1" as="geometry" />
        </mxCell>
        <mxCell id="4SZAvXcc_9hS6sKojA4J-7" value="In menu" style="rounded=0;whiteSpace=wrap;html=1;" vertex="1" parent="WIyWlLk6GJQsqaUBKTNV-1">
          <mxGeometry x="354" y="480" width="120" height="60" as="geometry" />
        </mxCell>
        <mxCell id="4SZAvXcc_9hS6sKojA4J-11" value="" style="edgeStyle=orthogonalEdgeStyle;rounded=0;orthogonalLoop=1;jettySize=auto;html=1;" edge="1" parent="WIyWlLk6GJQsqaUBKTNV-1" source="4SZAvXcc_9hS6sKojA4J-8" target="4SZAvXcc_9hS6sKojA4J-10">
          <mxGeometry relative="1" as="geometry" />
        </mxCell>
        <mxCell id="4SZAvXcc_9hS6sKojA4J-8" value="choice" style="whiteSpace=wrap;html=1;rounded=0;" vertex="1" parent="WIyWlLk6GJQsqaUBKTNV-1">
          <mxGeometry x="354" y="580" width="120" height="60" as="geometry" />
        </mxCell>
        <mxCell id="4SZAvXcc_9hS6sKojA4J-31" value="false" style="edgeStyle=orthogonalEdgeStyle;rounded=0;orthogonalLoop=1;jettySize=auto;html=1;" edge="1" parent="WIyWlLk6GJQsqaUBKTNV-1" source="4SZAvXcc_9hS6sKojA4J-10" target="4SZAvXcc_9hS6sKojA4J-30">
          <mxGeometry relative="1" as="geometry" />
        </mxCell>
        <mxCell id="4SZAvXcc_9hS6sKojA4J-43" value="true" style="edgeStyle=orthogonalEdgeStyle;rounded=0;orthogonalLoop=1;jettySize=auto;html=1;" edge="1" parent="WIyWlLk6GJQsqaUBKTNV-1" source="4SZAvXcc_9hS6sKojA4J-10" target="4SZAvXcc_9hS6sKojA4J-47">
          <mxGeometry relative="1" as="geometry">
            <mxPoint x="300" y="720" as="targetPoint" />
          </mxGeometry>
        </mxCell>
        <mxCell id="4SZAvXcc_9hS6sKojA4J-10" value="choice = 1" style="rhombus;whiteSpace=wrap;html=1;rounded=0;" vertex="1" parent="WIyWlLk6GJQsqaUBKTNV-1">
          <mxGeometry x="374" y="680" width="80" height="80" as="geometry" />
        </mxCell>
        <mxCell id="4SZAvXcc_9hS6sKojA4J-18" value="" style="edgeStyle=orthogonalEdgeStyle;rounded=0;orthogonalLoop=1;jettySize=auto;html=1;" edge="1" parent="WIyWlLk6GJQsqaUBKTNV-1" source="4SZAvXcc_9hS6sKojA4J-16" target="4SZAvXcc_9hS6sKojA4J-17">
          <mxGeometry relative="1" as="geometry" />
        </mxCell>
        <mxCell id="4SZAvXcc_9hS6sKojA4J-16" value="i = 0" style="rounded=0;whiteSpace=wrap;html=1;" vertex="1" parent="WIyWlLk6GJQsqaUBKTNV-1">
          <mxGeometry y="690" width="120" height="60" as="geometry" />
        </mxCell>
        <mxCell id="4SZAvXcc_9hS6sKojA4J-20" value="true" style="edgeStyle=orthogonalEdgeStyle;rounded=0;orthogonalLoop=1;jettySize=auto;html=1;" edge="1" parent="WIyWlLk6GJQsqaUBKTNV-1" source="4SZAvXcc_9hS6sKojA4J-17" target="4SZAvXcc_9hS6sKojA4J-19">
          <mxGeometry relative="1" as="geometry" />
        </mxCell>
        <mxCell id="4SZAvXcc_9hS6sKojA4J-29" value="false" style="edgeStyle=orthogonalEdgeStyle;rounded=0;orthogonalLoop=1;jettySize=auto;html=1;exitX=0.5;exitY=0;exitDx=0;exitDy=0;" edge="1" parent="WIyWlLk6GJQsqaUBKTNV-1" source="4SZAvXcc_9hS6sKojA4J-17">
          <mxGeometry relative="1" as="geometry">
            <mxPoint x="410" y="660" as="targetPoint" />
            <Array as="points">
              <mxPoint x="-90" y="660" />
            </Array>
          </mxGeometry>
        </mxCell>
        <mxCell id="4SZAvXcc_9hS6sKojA4J-17" value="i &amp;lt; n" style="rhombus;whiteSpace=wrap;html=1;rounded=0;" vertex="1" parent="WIyWlLk6GJQsqaUBKTNV-1">
          <mxGeometry x="-130" y="680" width="80" height="80" as="geometry" />
        </mxCell>
        <mxCell id="4SZAvXcc_9hS6sKojA4J-25" value="" style="edgeStyle=orthogonalEdgeStyle;rounded=0;orthogonalLoop=1;jettySize=auto;html=1;" edge="1" parent="WIyWlLk6GJQsqaUBKTNV-1" source="4SZAvXcc_9hS6sKojA4J-19" target="4SZAvXcc_9hS6sKojA4J-24">
          <mxGeometry relative="1" as="geometry" />
        </mxCell>
        <mxCell id="4SZAvXcc_9hS6sKojA4J-19" value="insert(student, currenIndex" style="rounded=0;whiteSpace=wrap;html=1;" vertex="1" parent="WIyWlLk6GJQsqaUBKTNV-1">
          <mxGeometry x="-280" y="690" width="120" height="60" as="geometry" />
        </mxCell>
        <mxCell id="4SZAvXcc_9hS6sKojA4J-23" value="" style="edgeStyle=orthogonalEdgeStyle;rounded=0;orthogonalLoop=1;jettySize=auto;html=1;" edge="1" parent="WIyWlLk6GJQsqaUBKTNV-1" source="4SZAvXcc_9hS6sKojA4J-21" target="4SZAvXcc_9hS6sKojA4J-7">
          <mxGeometry relative="1" as="geometry" />
        </mxCell>
        <mxCell id="4SZAvXcc_9hS6sKojA4J-21" value="n, currentIndex = 0,&lt;br&gt;index = 0, updateIndex = 0" style="rounded=0;whiteSpace=wrap;html=1;" vertex="1" parent="WIyWlLk6GJQsqaUBKTNV-1">
          <mxGeometry x="354" y="380" width="120" height="60" as="geometry" />
        </mxCell>
        <mxCell id="4SZAvXcc_9hS6sKojA4J-27" value="" style="edgeStyle=orthogonalEdgeStyle;rounded=0;orthogonalLoop=1;jettySize=auto;html=1;" edge="1" parent="WIyWlLk6GJQsqaUBKTNV-1" source="4SZAvXcc_9hS6sKojA4J-24" target="4SZAvXcc_9hS6sKojA4J-26">
          <mxGeometry relative="1" as="geometry" />
        </mxCell>
        <mxCell id="4SZAvXcc_9hS6sKojA4J-24" value="Nhập dữ liệu" style="shape=parallelogram;perimeter=parallelogramPerimeter;whiteSpace=wrap;html=1;fixedSize=1;rounded=0;" vertex="1" parent="WIyWlLk6GJQsqaUBKTNV-1">
          <mxGeometry x="-430" y="690" width="120" height="60" as="geometry" />
        </mxCell>
        <mxCell id="4SZAvXcc_9hS6sKojA4J-28" style="edgeStyle=orthogonalEdgeStyle;rounded=0;orthogonalLoop=1;jettySize=auto;html=1;exitX=0.5;exitY=1;exitDx=0;exitDy=0;" edge="1" parent="WIyWlLk6GJQsqaUBKTNV-1" source="4SZAvXcc_9hS6sKojA4J-26">
          <mxGeometry relative="1" as="geometry">
            <mxPoint x="-30" y="720" as="targetPoint" />
            <Array as="points">
              <mxPoint x="-530" y="840" />
              <mxPoint x="-30" y="840" />
            </Array>
          </mxGeometry>
        </mxCell>
        <mxCell id="4SZAvXcc_9hS6sKojA4J-26" value="currentIndex++;" style="whiteSpace=wrap;html=1;rounded=0;" vertex="1" parent="WIyWlLk6GJQsqaUBKTNV-1">
          <mxGeometry x="-590" y="690" width="120" height="60" as="geometry" />
        </mxCell>
        <mxCell id="4SZAvXcc_9hS6sKojA4J-40" value="true" style="edgeStyle=orthogonalEdgeStyle;rounded=0;orthogonalLoop=1;jettySize=auto;html=1;" edge="1" parent="WIyWlLk6GJQsqaUBKTNV-1" source="4SZAvXcc_9hS6sKojA4J-30" target="4SZAvXcc_9hS6sKojA4J-41">
          <mxGeometry relative="1" as="geometry">
            <mxPoint x="490" y="880" as="targetPoint" />
          </mxGeometry>
        </mxCell>
        <mxCell id="4SZAvXcc_9hS6sKojA4J-59" value="false" style="edgeStyle=orthogonalEdgeStyle;rounded=0;orthogonalLoop=1;jettySize=auto;html=1;" edge="1" parent="WIyWlLk6GJQsqaUBKTNV-1" source="4SZAvXcc_9hS6sKojA4J-30" target="4SZAvXcc_9hS6sKojA4J-58">
          <mxGeometry relative="1" as="geometry" />
        </mxCell>
        <mxCell id="4SZAvXcc_9hS6sKojA4J-30" value="choice = 2" style="rhombus;whiteSpace=wrap;html=1;rounded=0;" vertex="1" parent="WIyWlLk6GJQsqaUBKTNV-1">
          <mxGeometry x="374" y="840" width="80" height="80" as="geometry" />
        </mxCell>
        <mxCell id="4SZAvXcc_9hS6sKojA4J-50" value="" style="edgeStyle=orthogonalEdgeStyle;rounded=0;orthogonalLoop=1;jettySize=auto;html=1;" edge="1" parent="WIyWlLk6GJQsqaUBKTNV-1" source="4SZAvXcc_9hS6sKojA4J-41" target="4SZAvXcc_9hS6sKojA4J-51">
          <mxGeometry relative="1" as="geometry">
            <mxPoint x="640" y="880" as="targetPoint" />
          </mxGeometry>
        </mxCell>
        <mxCell id="4SZAvXcc_9hS6sKojA4J-41" value="&amp;amp;updateIndex" style="shape=parallelogram;perimeter=parallelogramPerimeter;whiteSpace=wrap;html=1;fixedSize=1;" vertex="1" parent="WIyWlLk6GJQsqaUBKTNV-1">
          <mxGeometry x="490" y="850" width="120" height="60" as="geometry" />
        </mxCell>
        <mxCell id="4SZAvXcc_9hS6sKojA4J-48" value="" style="edgeStyle=orthogonalEdgeStyle;rounded=0;orthogonalLoop=1;jettySize=auto;html=1;" edge="1" parent="WIyWlLk6GJQsqaUBKTNV-1" source="4SZAvXcc_9hS6sKojA4J-47" target="4SZAvXcc_9hS6sKojA4J-16">
          <mxGeometry relative="1" as="geometry" />
        </mxCell>
        <mxCell id="4SZAvXcc_9hS6sKojA4J-47" value="&amp;amp;n" style="shape=parallelogram;perimeter=parallelogramPerimeter;whiteSpace=wrap;html=1;fixedSize=1;" vertex="1" parent="WIyWlLk6GJQsqaUBKTNV-1">
          <mxGeometry x="170" y="690" width="120" height="60" as="geometry" />
        </mxCell>
        <mxCell id="4SZAvXcc_9hS6sKojA4J-53" value="true" style="edgeStyle=orthogonalEdgeStyle;rounded=0;orthogonalLoop=1;jettySize=auto;html=1;" edge="1" parent="WIyWlLk6GJQsqaUBKTNV-1" source="4SZAvXcc_9hS6sKojA4J-51" target="4SZAvXcc_9hS6sKojA4J-52">
          <mxGeometry relative="1" as="geometry" />
        </mxCell>
        <mxCell id="4SZAvXcc_9hS6sKojA4J-57" value="false" style="edgeStyle=orthogonalEdgeStyle;rounded=0;orthogonalLoop=1;jettySize=auto;html=1;exitX=0.5;exitY=0;exitDx=0;exitDy=0;" edge="1" parent="WIyWlLk6GJQsqaUBKTNV-1" source="4SZAvXcc_9hS6sKojA4J-51">
          <mxGeometry relative="1" as="geometry">
            <mxPoint x="420" y="660" as="targetPoint" />
            <Array as="points">
              <mxPoint x="805" y="660" />
            </Array>
          </mxGeometry>
        </mxCell>
        <mxCell id="4SZAvXcc_9hS6sKojA4J-51" value="updateIndex &amp;gt;= 0 &amp;amp;&amp;amp; updateIndex&amp;lt;currentIndex&amp;nbsp;" style="rhombus;whiteSpace=wrap;html=1;" vertex="1" parent="WIyWlLk6GJQsqaUBKTNV-1">
          <mxGeometry x="650" y="835" width="310" height="90" as="geometry" />
        </mxCell>
        <mxCell id="4SZAvXcc_9hS6sKojA4J-52" value="insert(&amp;amp;student, updateIndex)" style="whiteSpace=wrap;html=1;" vertex="1" parent="WIyWlLk6GJQsqaUBKTNV-1">
          <mxGeometry x="1030" y="850" width="120" height="60" as="geometry" />
        </mxCell>
        <mxCell id="4SZAvXcc_9hS6sKojA4J-61" value="" style="edgeStyle=orthogonalEdgeStyle;rounded=0;orthogonalLoop=1;jettySize=auto;html=1;" edge="1" parent="WIyWlLk6GJQsqaUBKTNV-1" source="4SZAvXcc_9hS6sKojA4J-58" target="4SZAvXcc_9hS6sKojA4J-60">
          <mxGeometry relative="1" as="geometry" />
        </mxCell>
        <mxCell id="4SZAvXcc_9hS6sKojA4J-87" value="false" style="edgeStyle=orthogonalEdgeStyle;rounded=0;orthogonalLoop=1;jettySize=auto;html=1;" edge="1" parent="WIyWlLk6GJQsqaUBKTNV-1" source="4SZAvXcc_9hS6sKojA4J-58" target="4SZAvXcc_9hS6sKojA4J-86">
          <mxGeometry relative="1" as="geometry" />
        </mxCell>
        <mxCell id="4SZAvXcc_9hS6sKojA4J-58" value="choice = 3" style="rhombus;whiteSpace=wrap;html=1;rounded=0;" vertex="1" parent="WIyWlLk6GJQsqaUBKTNV-1">
          <mxGeometry x="374" y="970" width="80" height="80" as="geometry" />
        </mxCell>
        <mxCell id="4SZAvXcc_9hS6sKojA4J-67" value="" style="edgeStyle=orthogonalEdgeStyle;rounded=0;orthogonalLoop=1;jettySize=auto;html=1;" edge="1" parent="WIyWlLk6GJQsqaUBKTNV-1" source="4SZAvXcc_9hS6sKojA4J-60" target="4SZAvXcc_9hS6sKojA4J-66">
          <mxGeometry relative="1" as="geometry" />
        </mxCell>
        <mxCell id="4SZAvXcc_9hS6sKojA4J-60" value="&amp;amp;index" style="shape=parallelogram;perimeter=parallelogramPerimeter;whiteSpace=wrap;html=1;fixedSize=1;rounded=0;" vertex="1" parent="WIyWlLk6GJQsqaUBKTNV-1">
          <mxGeometry x="234" y="980" width="120" height="60" as="geometry" />
        </mxCell>
        <mxCell id="4SZAvXcc_9hS6sKojA4J-71" value="true" style="edgeStyle=orthogonalEdgeStyle;rounded=0;orthogonalLoop=1;jettySize=auto;html=1;" edge="1" parent="WIyWlLk6GJQsqaUBKTNV-1" source="4SZAvXcc_9hS6sKojA4J-66" target="4SZAvXcc_9hS6sKojA4J-70">
          <mxGeometry relative="1" as="geometry" />
        </mxCell>
        <mxCell id="4SZAvXcc_9hS6sKojA4J-85" value="false" style="edgeStyle=orthogonalEdgeStyle;rounded=0;orthogonalLoop=1;jettySize=auto;html=1;exitX=0.5;exitY=0;exitDx=0;exitDy=0;" edge="1" parent="WIyWlLk6GJQsqaUBKTNV-1" source="4SZAvXcc_9hS6sKojA4J-66">
          <mxGeometry relative="1" as="geometry">
            <mxPoint x="410" y="660" as="targetPoint" />
            <Array as="points">
              <mxPoint x="110" y="890" />
              <mxPoint x="-690" y="890" />
              <mxPoint x="-690" y="660" />
            </Array>
          </mxGeometry>
        </mxCell>
        <mxCell id="4SZAvXcc_9hS6sKojA4J-66" value="index&amp;lt;currentIndex" style="rhombus;whiteSpace=wrap;html=1;rounded=0;" vertex="1" parent="WIyWlLk6GJQsqaUBKTNV-1">
          <mxGeometry x="30" y="970" width="160" height="80" as="geometry" />
        </mxCell>
        <mxCell id="4SZAvXcc_9hS6sKojA4J-73" value="" style="edgeStyle=orthogonalEdgeStyle;rounded=0;orthogonalLoop=1;jettySize=auto;html=1;" edge="1" parent="WIyWlLk6GJQsqaUBKTNV-1" source="4SZAvXcc_9hS6sKojA4J-70" target="4SZAvXcc_9hS6sKojA4J-72">
          <mxGeometry relative="1" as="geometry" />
        </mxCell>
        <mxCell id="4SZAvXcc_9hS6sKojA4J-70" value="delete(student, index, currentIndex)" style="whiteSpace=wrap;html=1;rounded=0;" vertex="1" parent="WIyWlLk6GJQsqaUBKTNV-1">
          <mxGeometry x="-140" y="980" width="120" height="60" as="geometry" />
        </mxCell>
        <mxCell id="4SZAvXcc_9hS6sKojA4J-90" style="edgeStyle=orthogonalEdgeStyle;rounded=0;orthogonalLoop=1;jettySize=auto;html=1;exitX=0.5;exitY=1;exitDx=0;exitDy=0;" edge="1" parent="WIyWlLk6GJQsqaUBKTNV-1" source="4SZAvXcc_9hS6sKojA4J-72">
          <mxGeometry relative="1" as="geometry">
            <mxPoint x="220" y="1010" as="targetPoint" />
            <Array as="points">
              <mxPoint x="-240" y="1060" />
              <mxPoint x="220" y="1060" />
            </Array>
          </mxGeometry>
        </mxCell>
        <mxCell id="4SZAvXcc_9hS6sKojA4J-72" value="currentIndex--" style="whiteSpace=wrap;html=1;rounded=0;" vertex="1" parent="WIyWlLk6GJQsqaUBKTNV-1">
          <mxGeometry x="-300" y="980" width="120" height="60" as="geometry" />
        </mxCell>
        <mxCell id="4SZAvXcc_9hS6sKojA4J-92" value="" style="edgeStyle=orthogonalEdgeStyle;rounded=0;orthogonalLoop=1;jettySize=auto;html=1;" edge="1" parent="WIyWlLk6GJQsqaUBKTNV-1" source="4SZAvXcc_9hS6sKojA4J-86" target="4SZAvXcc_9hS6sKojA4J-91">
          <mxGeometry relative="1" as="geometry" />
        </mxCell>
        <mxCell id="4SZAvXcc_9hS6sKojA4J-100" value="false" style="edgeStyle=orthogonalEdgeStyle;rounded=0;orthogonalLoop=1;jettySize=auto;html=1;" edge="1" parent="WIyWlLk6GJQsqaUBKTNV-1" source="4SZAvXcc_9hS6sKojA4J-86" target="4SZAvXcc_9hS6sKojA4J-99">
          <mxGeometry relative="1" as="geometry" />
        </mxCell>
        <mxCell id="4SZAvXcc_9hS6sKojA4J-86" value="choice = 4" style="rhombus;whiteSpace=wrap;html=1;rounded=0;" vertex="1" parent="WIyWlLk6GJQsqaUBKTNV-1">
          <mxGeometry x="374" y="1100" width="80" height="80" as="geometry" />
        </mxCell>
        <mxCell id="4SZAvXcc_9hS6sKojA4J-94" value="" style="edgeStyle=orthogonalEdgeStyle;rounded=0;orthogonalLoop=1;jettySize=auto;html=1;" edge="1" parent="WIyWlLk6GJQsqaUBKTNV-1" source="4SZAvXcc_9hS6sKojA4J-91" target="4SZAvXcc_9hS6sKojA4J-93">
          <mxGeometry relative="1" as="geometry" />
        </mxCell>
        <mxCell id="4SZAvXcc_9hS6sKojA4J-91" value="i=0" style="whiteSpace=wrap;html=1;rounded=0;" vertex="1" parent="WIyWlLk6GJQsqaUBKTNV-1">
          <mxGeometry x="490" y="1110" width="120" height="60" as="geometry" />
        </mxCell>
        <mxCell id="4SZAvXcc_9hS6sKojA4J-96" value="" style="edgeStyle=orthogonalEdgeStyle;rounded=0;orthogonalLoop=1;jettySize=auto;html=1;" edge="1" parent="WIyWlLk6GJQsqaUBKTNV-1" source="4SZAvXcc_9hS6sKojA4J-93" target="4SZAvXcc_9hS6sKojA4J-95">
          <mxGeometry relative="1" as="geometry" />
        </mxCell>
        <mxCell id="4SZAvXcc_9hS6sKojA4J-97" value="true" style="edgeStyle=orthogonalEdgeStyle;rounded=0;orthogonalLoop=1;jettySize=auto;html=1;" edge="1" parent="WIyWlLk6GJQsqaUBKTNV-1" source="4SZAvXcc_9hS6sKojA4J-93" target="4SZAvXcc_9hS6sKojA4J-95">
          <mxGeometry relative="1" as="geometry" />
        </mxCell>
        <mxCell id="4SZAvXcc_9hS6sKojA4J-98" value="false" style="edgeStyle=orthogonalEdgeStyle;rounded=0;orthogonalLoop=1;jettySize=auto;html=1;exitX=0.5;exitY=0;exitDx=0;exitDy=0;" edge="1" parent="WIyWlLk6GJQsqaUBKTNV-1" source="4SZAvXcc_9hS6sKojA4J-93">
          <mxGeometry relative="1" as="geometry">
            <mxPoint x="410" y="660" as="targetPoint" />
            <Array as="points">
              <mxPoint x="715" y="1020" />
              <mxPoint x="1170" y="1020" />
              <mxPoint x="1170" y="660" />
            </Array>
          </mxGeometry>
        </mxCell>
        <mxCell id="4SZAvXcc_9hS6sKojA4J-93" value="i&amp;lt;currentIndex" style="rhombus;whiteSpace=wrap;html=1;rounded=0;" vertex="1" parent="WIyWlLk6GJQsqaUBKTNV-1">
          <mxGeometry x="650" y="1100" width="130" height="80" as="geometry" />
        </mxCell>
        <mxCell id="4SZAvXcc_9hS6sKojA4J-95" value="print(student, i)" style="whiteSpace=wrap;html=1;rounded=0;" vertex="1" parent="WIyWlLk6GJQsqaUBKTNV-1">
          <mxGeometry x="810" y="1109" width="120" height="60" as="geometry" />
        </mxCell>
        <mxCell id="4SZAvXcc_9hS6sKojA4J-103" value="true" style="edgeStyle=orthogonalEdgeStyle;rounded=0;orthogonalLoop=1;jettySize=auto;html=1;" edge="1" parent="WIyWlLk6GJQsqaUBKTNV-1" source="4SZAvXcc_9hS6sKojA4J-99" target="4SZAvXcc_9hS6sKojA4J-102">
          <mxGeometry relative="1" as="geometry" />
        </mxCell>
        <mxCell id="4SZAvXcc_9hS6sKojA4J-104" value="false" style="edgeStyle=orthogonalEdgeStyle;rounded=0;orthogonalLoop=1;jettySize=auto;html=1;exitX=1;exitY=0.5;exitDx=0;exitDy=0;" edge="1" parent="WIyWlLk6GJQsqaUBKTNV-1" source="4SZAvXcc_9hS6sKojA4J-99">
          <mxGeometry relative="1" as="geometry">
            <mxPoint x="410" y="660" as="targetPoint" />
            <Array as="points">
              <mxPoint x="1170" y="1260" />
              <mxPoint x="1170" y="660" />
            </Array>
          </mxGeometry>
        </mxCell>
        <mxCell id="4SZAvXcc_9hS6sKojA4J-99" value="choice = 5" style="rhombus;whiteSpace=wrap;html=1;rounded=0;" vertex="1" parent="WIyWlLk6GJQsqaUBKTNV-1">
          <mxGeometry x="374" y="1220" width="80" height="80" as="geometry" />
        </mxCell>
        <mxCell id="4SZAvXcc_9hS6sKojA4J-102" value="End" style="ellipse;whiteSpace=wrap;html=1;" vertex="1" parent="WIyWlLk6GJQsqaUBKTNV-1">
          <mxGeometry x="354" y="1340" width="120" height="80" as="geometry" />
        </mxCell>
      </root>
    </mxGraphModel>
  </diagram>
</mxfile>
